<?xml version="1.0" encoding="UTF-8" standalone="no"?>
<svg
   xmlns:dc="http://purl.org/dc/elements/1.1/"
   xmlns:cc="http://creativecommons.org/ns#"
   xmlns:rdf="http://www.w3.org/1999/02/22-rdf-syntax-ns#"
   xmlns:svg="http://www.w3.org/2000/svg"
   xmlns="http://www.w3.org/2000/svg"
   xmlns:sodipodi="http://sodipodi.sourceforge.net/DTD/sodipodi-0.dtd"
   xmlns:inkscape="http://www.inkscape.org/namespaces/inkscape"
   width="210mm"
   height="297mm"
   viewBox="0 0 210 297"
   version="1.1"
   id="svg8"
   inkscape:version="1.0.1 (3bc2e813f5, 2020-09-07)"
   sodipodi:docname="core_structure.svg">
  <defs
     id="defs2">
    <marker
       style="overflow:visible"
       id="Arrow1Lstart"
       refX="0.0"
       refY="0.0"
       orient="auto"
       inkscape:stockid="Arrow1Lstart"
       inkscape:isstock="true">
      <path
         transform="scale(0.8) translate(12.5,0)"
         style="fill-rule:evenodd;stroke:none;stroke-width:1pt;stroke-opacity:1;fill:#0000ff;fill-opacity:1"
         d="M 0.0,0.0 L 5.0,-5.0 L -12.5,0.0 L 5.0,5.0 L 0.0,0.0 z "
         id="path1091" />
    </marker>
    <marker
       style="overflow:visible;"
       id="Arrow1Lend"
       refX="0.0"
       refY="0.0"
       orient="auto"
       inkscape:stockid="Arrow1Lend"
       inkscape:isstock="true">
      <path
         transform="scale(0.8) rotate(180) translate(12.5,0)"
         style="fill-rule:evenodd;stroke:none;stroke-width:1pt;stroke-opacity:1;fill:#0000ff;fill-opacity:1"
         d="M 0.0,0.0 L 5.0,-5.0 L -12.5,0.0 L 5.0,5.0 L 0.0,0.0 z "
         id="path1094" />
    </marker>
  </defs>
  <sodipodi:namedview
     id="base"
     pagecolor="#ffffff"
     bordercolor="#666666"
     borderopacity="1.0"
     inkscape:pageopacity="0.0"
     inkscape:pageshadow="2"
     inkscape:zoom="1.4"
     inkscape:cx="447.2689"
     inkscape:cy="527.13424"
     inkscape:document-units="mm"
     inkscape:current-layer="layer2"
     inkscape:document-rotation="0"
     showgrid="false"
     inkscape:window-width="3387"
     inkscape:window-height="1349"
     inkscape:window-x="53"
     inkscape:window-y="36"
     inkscape:window-maximized="1" />
  <metadata
     id="metadata5">
    <rdf:RDF>
      <cc:Work
         rdf:about="">
        <dc:format>image/svg+xml</dc:format>
        <dc:type
           rdf:resource="http://purl.org/dc/dcmitype/StillImage" />
        <dc:title></dc:title>
      </cc:Work>
    </rdf:RDF>
  </metadata>
  <g
     inkscape:groupmode="layer"
     id="layer3"
     inkscape:label="global things"
     style="display:inline;mix-blend-mode:normal">
    <rect
       style="fill:#ececec;stroke-width:0.264999;stroke-miterlimit:4;stroke-dasharray:none"
       id="rect1062"
       width="111.17182"
       height="112.86607"
       x="11.374029"
       y="96.218437"
       ry="1.6086481" />
    <rect
       style="fill:#f2f2f2;stroke-width:0.256761;stroke-miterlimit:4;stroke-dasharray:none"
       id="rect1064"
       width="111.23251"
       height="22.661541"
       x="11.581839"
       y="64.893196"
       ry="1.3051863" />
    <rect
       style="fill:#f2f2f2;stroke-width:0.257634;stroke-miterlimit:4;stroke-dasharray:none"
       id="rect1066"
       width="71.782173"
       height="21.833572"
       x="130.89142"
       y="65.622681"
       ry="1.5744314" />
    <rect
       style="fill:#f2f2f2;stroke-width:0.220925;stroke-miterlimit:4;stroke-dasharray:none"
       id="rect1068"
       width="71.637817"
       height="34.466957"
       x="130.79602"
       y="-132.37471"
       transform="scale(1,-1)"
       ry="0.9476071" />
    <circle
       id="path1713"
       style="fill:#0000ff;stroke:#000000;stroke-width:0.264583"
       cx="38.602257"
       cy="87.555847"
       r="0" />
    <circle
       id="path1715"
       style="fill:#0000ff;stroke:#000000;stroke-width:0.264583"
       cx="38.042202"
       cy="96.021729"
       r="0" />
    <path
       style="fill:#0000ff;stroke-width:0;stroke-miterlimit:4;stroke-dasharray:none;paint-order:stroke fill markers"
       id="path1719"
       d="m 35.449602,89.118172 c 0.0029,0.09723 0.0011,0.194707 0.0086,0.291684 0.03163,0.407202 0.08614,0.812406 0.117853,1.219597 0.07588,0.974101 0.113742,1.949027 0.148725,2.925233 0.02722,0.695061 0.02222,1.390862 0.04798,2.085946 0.01135,0.306327 0.05386,0.609264 0.02461,0.914533 -0.413012,0.603255 -0.06635,0.07537 1.573562,-0.940922 0.01371,-0.0085 -0.02045,0.03315 -0.03654,0.03175 -0.02522,-0.0021 -0.04552,-0.02344 -0.06419,-0.04051 -0.02716,-0.02487 -0.146924,-0.187179 -0.153583,-0.195995 -0.267084,-0.333267 -0.487357,-0.699249 -0.742646,-1.041146 -0.240673,-0.275043 -0.418216,-0.60651 -0.688808,-0.855012 -0.543065,0.397687 -1.127596,0.744207 -1.629198,1.193062 -0.03366,0.03012 0.729974,1.09111 0.788823,1.17389 0.153019,0.167375 0.28493,0.485584 0.525039,0.561475 0.09065,0.02865 0.199438,0.05634 0.284853,0.01458 1.644163,-0.803735 1.519174,-0.733824 2.367325,-1.421003 0.409805,-0.402269 0.217302,-0.199114 0.579628,-0.607441 0,0 -1.798386,0.75465 -1.798386,0.75465 v 0 c -0.363567,0.387768 -0.168966,0.195811 -0.58652,0.573106 -0.769824,0.560031 -0.513197,0.349822 1.010986,-0.486566 0.06471,-0.03551 -0.122217,0.09942 -0.195932,0.103164 -0.17032,0.0086 -0.412517,-0.388927 -0.497856,-0.489275 -0.183158,-0.254294 -0.371443,-0.50794 -0.54003,-0.772293 -0.04383,-0.06873 -0.08388,-0.139853 -0.123325,-0.211195 -0.02938,-0.05313 -0.02703,-0.185381 -0.08308,-0.162068 -0.606142,0.252124 -1.160642,0.613846 -1.740964,0.920771 0.0031,-0.01646 -0.0063,-0.0553 0.0094,-0.04937 0.132779,0.05015 0.493308,0.648848 0.622806,0.764413 0.252764,0.34276 0.470775,0.708461 0.730826,1.045803 0.03719,0.05318 0.331878,0.464621 0.394933,0.431781 1.757027,-0.915093 1.661803,-0.400344 1.757802,-1.18863 -0.01056,-0.303056 -0.05247,-0.602419 -0.074,-0.904981 -0.04877,-0.6854 -0.06342,-1.372624 -0.09933,-2.058691 -0.04186,-0.981594 -0.0798,-1.963417 -0.123071,-2.944939 -0.0011,-0.02656 -0.05561,-1.081601 -0.05806,-1.235194 -0.0016,-0.100169 0.0057,-0.200282 0.0086,-0.300424 0,0 -1.766786,0.900223 -1.766786,0.900223 z" />
    <path
       style="fill:#0000ff;stroke-width:0;stroke-miterlimit:4;stroke-dasharray:none;paint-order:stroke fill markers"
       id="path1721"
       d="m 38.656868,93.419685 c -0.305567,0.626364 -0.667261,1.217967 -1.060289,1.792171 -0.327966,0.494181 -0.755197,0.896105 -1.239162,1.233287 -0.806339,0.461806 0.520194,-0.297283 1.296201,-0.75679 0.04333,-0.02567 -0.150394,0.087 -0.375353,0.183811 -0.05656,0.02434 -0.114483,0.0454 -0.171726,0.0681 0,0 -1.559361,1.217924 -1.559361,1.217924 v 0 c 0.954331,-0.314671 1.801154,-0.8993 2.640523,-1.439105 0.469461,-0.365334 0.883626,-0.789107 1.205743,-1.292366 0.388604,-0.58607 0.730187,-1.198694 1.068877,-1.814631 0,0 -1.805453,0.807603 -1.805453,0.807603 z" />
    <path
       style="fill:#0000ff;stroke-width:0;stroke-miterlimit:4;stroke-dasharray:none;paint-order:stroke fill markers"
       id="path1723"
       d="m 119.13756,98.199555 c 0.088,-0.04969 0.17636,-0.09858 0.26385,-0.149069 4.78524,-2.761601 1.25695,-0.741119 0.79311,-0.442269 -0.16038,0.103328 0.33849,-0.176104 0.50814,-0.26338 1.1766,-0.605308 -0.12546,0.06973 0.97864,-0.503859 0.1346,-0.07285 0.27113,-0.142229 0.40379,-0.218535 0.67571,-0.388665 1.3531,-0.774645 2.02117,-1.176285 0.51767,-0.311213 0.96086,-0.769731 1.40204,-1.176118 0.64181,-0.556683 1.18677,-1.203145 1.73862,-1.845193 0.49078,-0.556996 0.91655,-1.162114 1.32652,-1.778963 0.28119,-0.404895 0.49161,-0.847815 0.7048,-1.289889 0.20511,-0.402267 0.43449,-0.78582 0.70737,-1.145455 0.28801,-0.414031 0.51475,-0.867056 0.76674,-1.303684 0.11023,-0.23758 0.58997,-0.915316 0.15639,-1.110978 -0.0782,-0.03528 -0.16973,-0.02484 -0.25459,-0.03727 -0.68892,0.117879 -1.30975,0.444084 -1.92471,0.759089 -1.12324,0.603491 -2.25335,1.207265 -3.25988,1.993043 -0.36509,0.63033 -0.086,0.131709 1.88703,-0.757439 0.0437,-0.01968 0.0618,-0.07334 0.0942,-0.108677 0.0413,-0.04508 0.0845,-0.08841 0.12681,-0.132514 0.2112,-0.219951 0.10693,-0.117266 0.345,-0.335087 0.3784,-0.386956 0.80876,-0.693208 1.26774,-0.974942 -2.63239,1.529366 -1.43576,0.796033 -0.82215,0.519456 0.23595,-0.106349 0.47462,-0.191008 0.7219,-0.265834 0.4344,-0.07737 0.72342,0.190047 0.97029,0.508124 0.28986,0.360336 0.4361,0.795896 0.54641,1.238467 0.10202,0.345988 0.29784,0.650163 0.43988,0.979321 0,0 1.72376,-0.970402 1.72376,-0.970402 v 0 c -0.1424,-0.317037 -0.33205,-0.612333 -0.42986,-0.948036 -0.12327,-0.465376 -0.27994,-0.924613 -0.5822,-1.307275 -0.27363,-0.374743 -0.61415,-0.687901 -1.10461,-0.701558 -1.19966,0.297111 -2.23628,1.060764 -3.28953,1.656307 -0.45861,0.293135 -0.87666,0.629595 -1.26309,1.014045 -0.4294,0.412792 0.0377,-0.03879 -0.35176,0.345043 -0.0443,0.04366 -0.0876,0.08847 -0.13434,0.129503 -0.0359,0.03154 -0.15812,0.104529 -0.1133,0.08791 1.95204,-0.723762 1.15099,-0.664667 1.80791,-0.711946 0.18791,-0.145661 0.37904,-0.284459 0.57842,-0.414351 0.0987,-0.06428 0.40182,-0.245565 0.29888,-0.188372 -0.32963,0.183128 -2.07584,1.184314 -0.98007,0.564972 0.6038,-0.30557 1.19683,-0.632433 1.85521,-0.810257 0.10312,-0.03451 0.22424,-0.07967 0.23221,-0.06791 0.0922,0.135845 -0.27842,0.727355 -0.33444,0.845391 -0.25224,0.434303 -0.48533,0.882346 -0.78343,1.287706 -0.26531,0.373332 -0.49471,0.768885 -0.69543,1.180748 -0.20613,0.436639 -0.4361,0.860923 -0.70746,1.26116 -0.40106,0.610542 -0.83267,1.199923 -1.31703,1.748007 -0.54903,0.638265 -1.11029,1.264071 -1.74322,1.821881 -0.35009,0.317694 -0.69901,0.63585 -1.08242,0.913813 -0.48409,0.350943 -1.45352,0.877276 0.96502,-0.513527 0.13508,-0.07768 -0.27234,0.151487 -0.40851,0.227232 -0.49104,0.258924 -0.99709,0.495035 -1.48258,0.76381 -2.56011,1.417301 -2.78351,1.594165 -0.77478,0.42192 0.0822,-0.04796 -0.16749,0.09035 -0.25123,0.135525 0,0 -1.54119,1.2466 -1.54119,1.2466 z" />
    <path
       style="fill:#0000ff;stroke-width:0;stroke-miterlimit:4;stroke-dasharray:none;paint-order:stroke fill markers"
       id="path1725"
       d="m 133.96936,89.53007 c -0.0273,0.545576 -0.20538,1.044397 -0.44567,1.52777 -0.2395,0.476173 -0.57366,0.89313 -0.86195,1.339562 -0.28479,0.482528 -0.64048,0.918083 -0.99651,1.348959 -0.42569,0.53135 -0.9171,1.006682 -1.38102,1.504712 -0.66353,0.602149 -1.35571,1.170921 -2.08439,1.692219 -0.62192,0.369576 -1.19359,0.809655 -1.78292,1.226344 -0.4709,0.350099 -0.97937,0.644427 -1.48583,0.938998 4.95473,-2.882114 -3.7794,2.211106 0.84905,-0.488688 0.11036,-0.06437 -0.22179,0.126887 -0.33291,0.189937 -0.34872,0.197863 -0.21994,0.127227 -0.54524,0.297037 -0.23984,0.101489 -0.5462,0.265343 -0.42008,-0.148783 0.16662,-0.422955 0.43688,-0.79076 0.72097,-1.141169 0.31909,-0.332531 0.60108,-0.702805 0.92274,-1.031751 0.0322,-0.02135 0.13112,-0.0813 0.0966,-0.06404 -2.13463,1.066032 -1.55584,0.400074 -2.12017,1.684345 -0.22306,0.465627 -0.42404,0.942295 -0.65898,1.402101 -0.2376,0.396417 -0.4688,0.796127 -0.73024,1.177447 -0.0329,0.0582 -0.0786,0.1108 -0.0986,0.17457 -0.12631,0.40275 0.43507,0.40921 0.66887,0.41236 0.55967,-0.0208 1.1087,-0.094 1.64121,-0.2677 0.335,-0.1365 0.68057,-0.23464 1.03329,-0.3116 0,0 1.5687,-1.188164 1.5687,-1.188164 v 0 c -0.35933,0.06681 -0.7162,0.142152 -1.05253,0.291044 -0.53283,0.20578 -1.02525,0.28136 -1.59452,0.31659 -0.12484,0.002 -0.25004,-0.005 -0.37454,0.005 -0.0317,0.002 -0.0626,0.011 -0.0937,0.0175 -0.006,0.001 -0.0196,0.0124 -0.0188,0.006 0.0102,-0.078 0.0942,-0.19364 0.12413,-0.24372 0.2571,-0.391212 0.50413,-0.790474 0.72468,-1.20352 0.22262,-0.466267 0.43066,-0.939401 0.64805,-1.408118 0.095,-0.223385 0.2068,-0.455715 0.27199,-0.69056 0.0157,-0.05669 0.0857,-0.191958 0.0297,-0.173971 -1.62284,0.521131 -1.3785,0.284226 -1.89191,0.831421 -0.29749,0.351063 -0.61477,0.684218 -0.90631,1.040268 -0.28738,0.376303 -0.57077,0.773657 -0.6885,1.23943 -0.003,0.06886 -0.0175,0.13812 -0.009,0.20658 0.0428,0.36382 0.3883,0.43792 0.67348,0.29709 0.96074,-0.472857 2.03667,-1.145081 2.9003,-1.642683 0.16748,-0.0965 -4.84946,2.789993 0.50107,-0.291862 0.49908,-0.300342 1.00227,-0.594886 1.46576,-0.949687 0.58216,-0.423384 1.17284,-0.831191 1.7756,-1.224804 0.72294,-0.53403 1.41928,-1.105366 2.06984,-1.726121 0.47069,-0.499639 0.96935,-0.976174 1.38781,-1.521957 0.35588,-0.440648 0.71076,-0.883886 0.99834,-1.373516 0.29056,-0.448728 0.62504,-0.871688 0.8478,-1.361043 0.23337,-0.509812 0.38302,-1.041752 0.42439,-1.603655 0,0 -1.7696,0.890138 -1.7696,0.890138 z" />
    <path
       style="fill:#0000ff;stroke-width:0;stroke-miterlimit:4;stroke-dasharray:none;paint-order:stroke fill markers"
       id="path1727"
       d="m 131.81799,113.35091 c -0.49705,0.005 -0.99414,0.005 -1.49121,0.007 -0.57431,0.002 -1.14861,-0.001 -1.72291,-0.003 -0.60598,-0.004 -1.2119,0.006 -1.81788,0.007 -0.58655,0.0257 -1.1641,-0.0173 -1.73968,-0.12627 -0.87351,-0.17776 -1.76846,-0.22763 -2.65526,-0.30462 -0.39258,-0.0417 -0.7923,-0.0637 -1.17493,-0.16964 -0.0654,-0.0181 -0.26101,-0.0727 -0.31354,-0.15385 -0.0187,-0.0288 -0.006,-0.0684 -0.01,-0.10255 0.19381,-0.45489 0.53215,-0.82641 0.87819,-1.17109 0.0887,-0.0714 0.17511,-0.14553 0.26596,-0.21407 0.0933,-0.0704 0.18884,-0.13805 0.28632,-0.20261 0.091,-0.0603 0.37319,-0.22656 0.27883,-0.1717 -2.52981,1.4709 -1.61539,0.88491 -0.96215,0.64335 0.20074,-0.069 0.39929,-0.15195 0.61111,-0.18139 0.0344,-0.005 0.0695,-0.004 0.10425,-0.004 0.0103,-4e-5 0.0406,0.002 0.0305,0.004 -0.0182,0.003 -0.037,2.7e-4 -0.0555,5.3e-4 -0.27752,0.2638 -0.55271,0.5267 -0.86194,0.75483 -0.34413,0.26653 -0.69523,0.52444 -1.03263,0.79954 -0.34044,0.28601 -0.67218,0.58382 -0.97301,0.91155 -0.21205,0.31096 -0.41324,0.62202 -0.53407,0.97986 -0.14322,0.60454 0.37161,1.09785 0.77248,1.47601 0.58607,0.47007 1.35697,0.59148 2.06652,0.7759 0,0 1.58819,-1.09275 1.58819,-1.09275 v 0 c -0.45788,-0.12129 -0.57637,-0.14933 -1.02121,-0.27973 -0.24519,-0.0719 -0.48709,-0.13339 -0.71226,-0.25809 -0.0902,-0.05 -0.16933,-0.11777 -0.254,-0.17666 -0.28302,-0.25321 -0.62647,-0.55156 -0.6965,-0.9493 -0.0216,-0.12258 0.0206,-0.21987 0.0545,-0.33188 0.13575,-0.32877 0.33259,-0.63052 0.55938,-0.90385 0.3096,-0.31387 0.63714,-0.60991 0.98138,-0.88548 0.34401,-0.26719 0.68869,-0.53352 1.03496,-0.79778 0.24851,-0.20218 0.60221,-0.47114 0.75715,-0.75487 0.0267,-0.0489 0.0352,-0.10576 0.0528,-0.15864 -0.0141,-0.059 -0.0145,-0.12307 -0.0424,-0.17695 -0.14799,-0.28648 -0.68011,-0.0208 -0.87253,0.0386 -1.1999,0.37087 -2.28632,1.09791 -3.23586,1.90907 -0.28537,0.30558 -0.68978,0.72225 -0.79088,1.14252 -0.0173,0.0719 -0.0133,0.1473 -0.0199,0.22095 0.0244,0.0698 0.0324,0.14762 0.0732,0.20927 0.23196,0.35097 1.24809,0.33769 1.60142,0.38945 0.87144,0.0671 1.74794,0.12666 2.60274,0.31709 0.5909,0.10927 1.17835,0.1849 1.78191,0.14071 0.59991,5.3e-4 1.19975,0.0107 1.79966,0.007 0.57664,-0.001 1.15328,-0.004 1.72993,-0.003 0.4908,0.002 0.98161,0.002 1.47239,0.007 0,0 1.60603,-1.16685 1.60603,-1.16685 z" />
    <path
       style="fill:#0000ff;stroke-width:0;stroke-miterlimit:4;stroke-dasharray:none;paint-order:stroke fill markers"
       id="path1729"
       d="m 165.15369,88.523772 c 0.006,0.830757 -0.0489,1.661782 -0.0827,2.491981 -0.0123,0.839401 -0.15649,1.669306 -0.23815,2.503469 -0.0702,0.583734 -0.0522,1.172445 -0.0915,1.75773 -0.0245,0.336198 -0.0593,0.671494 -0.0902,1.007128 0,0 1.76912,-0.88324 1.76912,-0.88324 v 0 c 0.024,-0.334716 0.0502,-0.669274 0.075,-1.003937 0.0332,-0.582666 0.0311,-1.16721 0.0883,-1.748594 0.0797,-0.835536 0.20561,-1.668479 0.22233,-2.508481 0.0279,-0.838639 0.0844,-1.675836 0.11094,-2.514414 0,0 -1.76313,0.898358 -1.76313,0.898358 z" />
    <path
       style="fill:#0000ff;stroke-width:0;stroke-miterlimit:4;stroke-dasharray:none;paint-order:stroke fill markers"
       id="path1731"
       d="m 162.64158,94.979274 c 0.18217,0.411967 0.36516,0.824572 0.56958,1.22614 0.18164,0.317778 0.39421,0.616083 0.57513,0.934268 0.19165,0.258895 0.36344,0.704855 0.58647,0.924081 0.0569,0.05591 0.12969,0.09289 0.19453,0.139327 0.31656,0.139216 0.71931,0.175776 1.03075,-0.009 0.61665,-0.365779 1.22391,-0.74716 1.83587,-1.120741 0.39972,-0.404331 0.64004,-0.922856 0.90844,-1.416508 0.25079,-0.456832 0.43417,-0.943538 0.64525,-1.419005 0.0342,-0.07511 0.0685,-0.150222 0.10268,-0.225335 0,0 -1.7919,0.819211 -1.7919,0.819211 v 0 c -0.0339,0.07558 -0.0677,0.151151 -0.10157,0.226727 -0.20673,0.471344 -0.3956,0.950544 -0.64559,1.401667 -0.26331,0.487537 -0.52281,0.988639 -0.94982,1.356018 0.51227,-0.288012 1.02103,-0.582371 1.53682,-0.864039 0.0545,-0.02974 -0.0972,0.07831 -0.15181,0.10771 -0.23227,0.124954 -0.50968,0.142025 -0.7592,0.07062 -0.0515,-0.02431 -0.11131,-0.0359 -0.15462,-0.07293 -0.052,-0.04444 -0.0841,-0.107964 -0.1229,-0.164325 -0.16383,-0.238257 -0.3017,-0.494573 -0.44719,-0.743987 -0.18239,-0.313786 -0.39192,-0.610503 -0.57339,-0.924899 -0.20458,-0.390763 -0.39737,-0.79031 -0.54966,-1.204449 0,0 -1.73787,0.959403 -1.73787,0.959403 z" />
  </g>
  <g
     inkscape:label="color_bg"
     inkscape:groupmode="layer"
     id="layer1"
     style="display:inline">
    <rect
       style="display:inline;fill:#ff0000;stroke-width:0.198688"
       id="rect10"
       width="133.84029"
       height="18.328279"
       x="9.8199062"
       y="13.469923"
       transform="translate(1.613829,26.412678)" />
    <g
       id="g1736"
       transform="translate(1.613829,26.412678)">
      <text
         xml:space="preserve"
         style="font-style:normal;font-weight:normal;font-size:10.5833px;line-height:1.25;font-family:sans-serif;fill:#000000;fill-opacity:1;stroke:none;stroke-width:0.264583"
         x="13.899485"
         y="25.44928"
         id="text14"><tspan
           sodipodi:role="line"
           id="tspan12"
           x="13.899485"
           y="25.44928"
           style="fill:#ffffff;stroke-width:0.264583">Data set code structure</tspan></text>
    </g>
    <rect
       style="fill:#ffd93d;fill-opacity:1;stroke-width:0.264583"
       id="rect61"
       width="38.202957"
       height="10.907395"
       x="162.70364"
       y="196.40944" />
    <text
       xml:space="preserve"
       style="font-style:normal;font-weight:normal;font-size:10.5833px;line-height:1.25;font-family:sans-serif;fill:#000000;fill-opacity:1;stroke:none;stroke-width:0.264583"
       x="164.03725"
       y="180.8308"
       id="text108"><tspan
         sodipodi:role="line"
         id="tspan106"
         x="164.03725"
         y="180.8308"
         style="stroke-width:0.264583"></tspan></text>
    <rect
       style="fill:#ffd93d;fill-opacity:1;stroke-width:0.302581"
       id="rect61-6"
       width="49.963959"
       height="10.907395"
       x="64.736725"
       y="165.01958" />
    <rect
       style="fill:#ffd93d;fill-opacity:1;stroke-width:0.314561"
       id="rect61-2"
       width="53.998596"
       height="10.907395"
       x="60.118168"
       y="118.8532" />
    <rect
       style="fill:#ffd93d;fill-opacity:1;stroke-width:0.264583"
       id="rect61-9"
       width="38.202957"
       height="10.907395"
       x="55.747124"
       y="102.12094" />
  </g>
  <g
     inkscape:groupmode="layer"
     id="layer2"
     inkscape:label="TEXT"
     style="display:inline">
    <rect
       style="display:inline;fill:#34bb7c;fill-opacity:1;stroke-width:0.20971"
       id="rect24-3"
       width="43.042549"
       height="11.206542"
       x="157.79103"
       y="183.21873" />
    <rect
       style="display:inline;fill:#34bb7c;fill-opacity:1;stroke-width:0.191376"
       id="rect24-3-1"
       width="35.845566"
       height="11.206542"
       x="67.926727"
       y="133.83389" />
    <rect
       style="display:inline;fill:#34bb7c;fill-opacity:1;stroke-width:0.186305"
       id="rect18"
       width="64.091522"
       height="11.229485"
       x="134.83638"
       y="71.27063" />
    <rect
       style="display:inline;fill:#34bb7c;fill-opacity:1;stroke-width:0.169548"
       id="rect24"
       width="28.134888"
       height="11.206542"
       x="17.010342"
       y="101.52959" />
    <rect
       style="display:inline;fill:#34bb7c;fill-opacity:1;stroke-width:0.204716"
       id="rect24-5"
       width="41.016766"
       height="11.206542"
       x="16.073952"
       y="71.324532" />
    <rect
       style="display:inline;fill:#34bb7c;fill-opacity:1;stroke-width:0.191376"
       id="rect24-3-1-2"
       width="35.845566"
       height="11.206542"
       x="68.132126"
       y="149.03345" />
    <rect
       style="display:inline;fill:#34bb7c;fill-opacity:1;stroke-width:0.191376"
       id="rect24-3-1-9"
       width="35.845566"
       height="11.206542"
       x="73.26825"
       y="177.85916" />
    <rect
       style="display:inline;fill:#34bb7c;fill-opacity:1;stroke-width:0.191376"
       id="rect24-3-1-2-0"
       width="35.845566"
       height="11.206542"
       x="73.473648"
       y="193.05872" />
    <text
       xml:space="preserve"
       style="font-style:normal;font-weight:normal;font-size:4.93889px;line-height:1.25;font-family:sans-serif;display:inline;fill:#000000;fill-opacity:1;stroke:none;stroke-width:0.264583"
       x="136.76579"
       y="78.758316"
       id="text22"><tspan
         sodipodi:role="line"
         id="tspan20"
         x="136.76579"
         y="78.758316"
         style="font-size:4.93889px;stroke-width:0.264583">SQL_database_manager</tspan></text>
    <text
       xml:space="preserve"
       style="font-style:normal;font-weight:normal;font-size:4.93889px;line-height:1.25;font-family:sans-serif;display:inline;fill:#000000;fill-opacity:1;stroke:none;stroke-width:0.264583"
       x="21.225773"
       y="108.95366"
       id="text28"><tspan
         sodipodi:role="line"
         id="tspan26"
         x="21.225773"
         y="108.95366"
         style="font-size:4.93889px;stroke-width:0.264583">data set</tspan></text>
    <text
       xml:space="preserve"
       style="font-style:normal;font-weight:normal;font-size:4.93889px;line-height:1.25;font-family:sans-serif;display:inline;fill:#000000;fill-opacity:1;stroke:none;stroke-width:0.264583"
       x="62.178551"
       y="125.74622"
       id="text36"><tspan
         sodipodi:role="line"
         id="tspan34"
         x="62.178551"
         y="125.74622"
         style="font-size:4.93889px;stroke-width:0.264583">m_param_dataclass</tspan></text>
    <text
       xml:space="preserve"
       style="font-style:normal;font-weight:normal;font-size:4.93889px;line-height:1.25;font-family:sans-serif;display:inline;fill:#000000;fill-opacity:1;stroke:none;stroke-width:0.264583"
       x="66.405602"
       y="171.87939"
       id="text40"><tspan
         sodipodi:role="line"
         id="tspan38"
         x="66.405602"
         y="171.87939"
         style="font-size:4.93889px;stroke-width:0.264583">setpoint_dataclass</tspan></text>
    <text
       xml:space="preserve"
       style="font-style:normal;font-weight:normal;font-size:4.93889px;line-height:1.25;font-family:sans-serif;display:inline;fill:#000000;fill-opacity:1;stroke:none;stroke-width:0.264583"
       x="69.645935"
       y="141.12984"
       id="text44"><tspan
         sodipodi:role="line"
         id="tspan42"
         x="69.645935"
         y="141.12984"
         style="font-size:4.93889px;stroke-width:0.264583">buffer_writer</tspan></text>
    <text
       xml:space="preserve"
       style="font-style:normal;font-weight:normal;font-size:4.9389px;line-height:1.25;font-family:sans-serif;display:inline;fill:#000000;fill-opacity:1;stroke:none;stroke-width:0.264583"
       x="166.91478"
       y="203.63382"
       id="text32-6"><tspan
         sodipodi:role="line"
         id="tspan30-7"
         x="166.91478"
         y="203.63382"
         style="font-size:4.9389px;stroke-width:0.264583">dataclasses</tspan></text>
    <text
       xml:space="preserve"
       style="font-style:normal;font-weight:normal;font-size:4.93889px;line-height:1.25;font-family:sans-serif;display:inline;fill:#000000;fill-opacity:1;stroke:none;stroke-width:0.264583"
       x="161.14874"
       y="190.12067"
       id="text83"><tspan
         sodipodi:role="line"
         id="tspan81"
         x="161.14874"
         y="190.12067"
         style="font-size:4.93889px;stroke-width:0.264583">normal classes</tspan></text>
    <text
       xml:space="preserve"
       style="font-style:normal;font-weight:normal;font-size:4.9389px;line-height:1.25;font-family:sans-serif;display:inline;fill:#000000;fill-opacity:1;stroke:none;stroke-width:0.265;stroke-miterlimit:4;stroke-dasharray:none"
       x="19.932034"
       y="78.429512"
       id="text28-3"><tspan
         sodipodi:role="line"
         id="tspan26-5"
         x="19.932034"
         y="78.429512"
         style="font-size:4.9389px;stroke-width:0.265;stroke-miterlimit:4;stroke-dasharray:none">Measurement</tspan></text>
    <text
       xml:space="preserve"
       style="font-style:normal;font-weight:normal;font-size:4.93889px;line-height:1.25;font-family:sans-serif;display:inline;fill:#000000;fill-opacity:1;stroke:none;stroke-width:0.264583"
       x="58.498306"
       y="109.68983"
       id="text32"><tspan
         sodipodi:role="line"
         id="tspan30"
         x="58.498306"
         y="109.68983"
         style="font-size:4.93889px;stroke-width:0.264583">data_set_raw</tspan></text>
    <text
       xml:space="preserve"
       style="font-style:normal;font-weight:normal;font-size:4.9389px;line-height:1.25;font-family:sans-serif;display:inline;fill:#000000;fill-opacity:1;stroke:none;stroke-width:0.264583"
       x="69.851334"
       y="156.32939"
       id="text44-7"><tspan
         sodipodi:role="line"
         id="tspan42-0"
         x="69.851334"
         y="156.32939"
         style="font-size:4.9389px;stroke-width:0.264583">buffer_reader</tspan></text>
    <text
       xml:space="preserve"
       style="font-style:normal;font-weight:normal;font-size:10.5833px;line-height:1.25;font-family:sans-serif;fill:#000000;fill-opacity:1;stroke:none;stroke-width:0.264583"
       x="161.65846"
       y="125.30766"
       id="text1019"><tspan
         sodipodi:role="line"
         id="tspan1017"
         x="161.65846"
         y="125.30766"
         style="stroke-width:0.264583" /></text>
    <text
       xml:space="preserve"
       style="font-style:normal;font-weight:normal;font-size:4.9389px;line-height:1.25;font-family:sans-serif;display:inline;fill:#000000;fill-opacity:1;stroke:none;stroke-width:0.264583"
       x="74.987457"
       y="185.15511"
       id="text44-3"><tspan
         sodipodi:role="line"
         id="tspan42-6"
         x="74.987457"
         y="185.15511"
         style="font-size:4.9389px;stroke-width:0.264583">buffer_writer</tspan></text>
    <text
       xml:space="preserve"
       style="font-style:normal;font-weight:normal;font-size:4.9389px;line-height:1.25;font-family:sans-serif;display:inline;fill:#000000;fill-opacity:1;stroke:none;stroke-width:0.264583"
       x="75.192856"
       y="200.35466"
       id="text44-7-6"><tspan
         sodipodi:role="line"
         id="tspan42-0-2"
         x="75.192856"
         y="200.35466"
         style="font-size:4.9389px;stroke-width:0.264583">buffer_reader</tspan></text>
    <path
       style="fill:#ffd93d;fill-opacity:1;stroke-width:0;stroke-miterlimit:4;stroke-dasharray:none;paint-order:stroke fill markers"
       id="path1774"
       d="m 59.063847,113.53996 c -0.782246,-0.0392 -1.564688,-0.0941 -2.34819,-0.0914 -0.111128,0.0157 -0.224298,0.0207 -0.333386,0.047 -0.113988,0.0276 -0.229706,0.0582 -0.332819,0.11404 -0.679493,0.36809 -1.629897,0.7659 -2.25293,1.37414 -0.13816,0.13488 -0.287938,0.32373 -0.410938,0.47238 -0.502327,0.59601 -0.921755,1.24903 -1.315545,1.91998 -0.433647,0.80871 -0.688671,1.69586 -0.854429,2.59429 -0.12024,0.72504 -0.117211,1.45698 -0.02257,2.18357 0.141165,0.73399 0.265784,1.47483 0.559797,2.16517 0.167614,0.26838 0.261821,0.60847 0.47594,0.84845 0.261994,0.29363 0.649404,0.43194 0.999692,0.58186 0.785124,0.30616 1.626623,0.33234 2.453875,0.23715 0.973114,-0.23324 2.235039,-0.51814 2.394939,-1.61577 0.03675,-0.32252 -0.108418,-0.62842 -0.225776,-0.92154 -0.483458,-1.26095 -0.323856,-0.69768 -2.127777,0.38387 0.02236,0.53176 0.307054,1.03376 0.571225,1.4843 0.335224,0.52656 0.836993,0.90355 1.300517,1.30799 0.288761,0.28259 0.292513,0.35394 0.03314,0.6396 -0.327287,0.25409 -0.646832,0.51976 -1.007038,0.72632 0,0 1.852951,-0.71765 1.852951,-0.71765 v 0 c 0.34966,-0.23223 0.706152,-0.48309 0.981093,-0.8015 0.209331,-0.37036 0.129247,-0.61228 -0.177154,-0.895 -0.451882,-0.38702 -0.944692,-0.74173 -1.270074,-1.25155 -0.208034,-0.34753 -0.551879,-0.91578 -0.475073,-1.33171 -0.567534,0.28612 -1.134414,0.57353 -1.702596,0.85836 -0.0076,0.004 0.01371,-0.0202 0.02056,-0.0152 0.02238,0.0166 0.03611,0.0429 0.04963,0.0673 0.08978,0.16193 0.144005,0.34229 0.215035,0.51231 0.100401,0.26312 0.228893,0.53433 0.166883,0.82069 -0.02699,0.0882 -0.03505,0.14738 -0.09631,0.22005 -0.02635,0.0312 -0.129021,0.0994 -0.09315,0.0798 2.960965,-1.61789 1.850715,-0.93904 1.171418,-0.7349 -0.80174,0.13643 -1.624393,0.12857 -2.398312,-0.1474 -0.304906,-0.12188 -0.694373,-0.23648 -0.928413,-0.48495 -0.212476,-0.22557 -0.299982,-0.55964 -0.461952,-0.81662 -0.276566,-0.67586 -0.413562,-1.39634 -0.541655,-2.11313 -0.07829,-0.71093 -0.06466,-1.42612 0.05558,-2.13272 0.169082,-0.87881 0.426006,-1.74457 0.872143,-2.52621 0.403032,-0.66393 0.837957,-1.3062 1.345081,-1.89614 0.14773,-0.16615 0.251021,-0.29407 0.421582,-0.43856 0.08575,-0.0726 0.369276,-0.25421 0.269417,-0.20267 -0.475848,0.24563 -0.933825,0.52443 -1.400741,0.78665 0.102661,-0.048 0.201054,-0.10649 0.30798,-0.14406 0.101801,-0.0358 0.209963,-0.0499 0.314944,-0.0748 0.777256,-0.0241 1.555065,0.0341 2.33048,0.0835 0,0 1.612931,-1.15533 1.612931,-1.15533 z" />
    <path
       style="fill:#ffd93d;fill-opacity:1;stroke-width:0;stroke-miterlimit:4;stroke-dasharray:none;paint-order:stroke fill markers"
       id="path1776"
       d="m 59.459986,129.66961 c -1.089734,0.30575 -2.193604,0.55559 -3.293411,0.82131 -0.432284,0.12622 -0.864746,0.27445 -1.259287,0.49568 -1.088525,0.61036 -1.832277,0.92667 -2.64255,1.68488 -0.647158,0.65725 -1.157586,1.42305 -1.611762,2.22121 -0.583713,1.02412 -0.996866,2.13158 -1.322449,3.26104 -0.270896,1.27799 -0.511923,2.56426 -0.705527,3.8565 -0.139266,1.12738 -0.262115,2.25686 -0.327652,3.3911 -0.05431,1.16328 -0.05136,2.32826 -0.05313,3.49252 -0.03728,1.28063 0.04714,2.55662 0.142378,3.83251 0.06067,1.13645 0.209737,2.26491 0.399753,3.38613 0.21073,1.09058 0.273839,2.20276 0.511501,3.28784 0.194363,0.73227 0.384527,1.46726 0.627184,2.18544 0.25156,0.78209 0.60489,1.52195 0.929677,2.27417 0.31066,0.68262 0.611132,1.3694 0.919623,2.05301 0.297291,0.55998 0.601263,1.11575 0.920715,1.66336 0.290677,0.51664 0.607619,1.01381 0.947193,1.49936 0.328152,0.43088 0.706609,0.82033 1.104728,1.18628 0.626239,0.55541 1.361689,0.96011 2.104906,1.33467 0.728427,0.3577 1.507323,0.58106 2.304642,0.71967 0.881827,-8e-4 2.053434,-0.41862 2.386208,-1.27131 0.04129,-0.1058 0.05476,-0.23345 0.07184,-0.34436 0.0032,-0.25123 0.04589,-0.51202 0.01717,-0.76321 -0.01836,-0.1606 -0.05862,-0.24826 -0.111588,-0.39914 -0.178038,-0.41758 -0.380127,-0.8212 -0.639789,-1.1939 -0.01275,-0.0168 -0.02056,-0.0619 -0.03828,-0.0504 -0.557186,0.36079 -1.137475,0.69699 -1.636405,1.13482 -0.05673,0.0498 0.09593,0.11661 0.14656,0.17258 0.209553,0.23168 0.443275,0.40596 0.698072,0.58496 0.316949,0.18372 0.645165,0.34651 0.974632,0.5062 0.129889,0.063 0.356161,0.15376 0.467617,0.26401 0.03682,0.0364 0.05089,0.0902 0.07633,0.13535 -7.93e-4,0.0468 0.01312,0.0961 -0.0021,0.14032 -0.102632,0.29609 -0.773557,0.68826 -1.023954,0.84757 -0.462809,0.26664 -0.827502,0.65819 -1.236673,0.99419 -0.369736,0.27689 -0.761079,0.52867 -1.148736,0.78163 -0.49004,0.33491 0.170122,-0.11919 -0.297465,0.21169 -0.04364,0.0309 -0.179534,0.11605 -0.133213,0.0893 1.690809,-0.97475 2.114907,-1.14535 1.423752,-0.85548 0,0 -1.580324,1.21046 -1.580324,1.21046 v 0 c 0.939516,-0.11799 1.658307,-0.87907 2.437571,-1.38043 0.38221,-0.26265 0.786257,-0.49612 1.137367,-0.80081 0.396315,-0.3437 0.78118,-0.70249 1.236898,-0.96909 0.346943,-0.23667 0.93657,-0.56125 0.947386,-1.05095 0.0016,-0.0725 -0.02672,-0.14249 -0.04008,-0.21373 -0.04126,-0.0681 -0.06936,-0.14612 -0.123791,-0.20419 -0.135903,-0.14499 -0.319135,-0.20646 -0.492807,-0.28776 -0.323435,-0.15141 -0.64176,-0.3123 -0.956959,-0.48023 -0.241257,-0.16529 -0.465566,-0.32523 -0.66086,-0.54492 -0.0464,-0.0522 -0.06702,-0.1883 -0.131987,-0.16268 -0.623438,0.24581 -1.19706,0.60318 -1.78779,0.91963 -0.01111,0.006 0.02085,0.0142 0.03129,0.0213 0.262543,0.34782 0.448064,0.73782 0.612978,1.14013 0.111798,0.34742 0.09826,0.71037 0.04328,1.06923 -0.03092,0.1102 -0.03702,0.17467 -0.108473,0.26692 -0.02781,0.0359 -0.139301,0.11471 -0.09922,0.0934 0.530678,-0.28273 1.049944,-0.58637 1.574917,-0.87956 -0.05792,0.0304 -0.111385,0.0714 -0.173755,0.0911 -0.07839,0.0247 -0.162176,0.0269 -0.243263,0.0404 -0.790766,-0.10583 -1.55515,-0.32696 -2.279028,-0.66388 -0.732071,-0.35603 -1.449258,-0.75344 -2.063819,-1.29398 -0.385837,-0.35832 -0.757584,-0.73474 -1.081527,-1.15082 -0.33719,-0.4806 -0.652933,-0.97185 -0.941035,-1.48378 -0.315085,-0.54199 -0.617093,-1.09104 -0.913691,-1.64333 -0.305086,-0.68411 -0.614352,-1.36556 -0.923544,-2.04776 -0.32352,-0.74675 -0.669423,-1.48388 -0.918364,-2.2608 -0.233264,-0.71342 -0.425111,-1.43992 -0.624747,-2.16314 -0.236228,-1.08027 -0.302054,-2.18792 -0.518983,-3.27248 -0.181025,-1.11825 -0.317698,-2.24332 -0.38509,-3.37463 -0.101466,-1.27007 -0.185458,-2.54016 -0.141235,-3.81555 0.0047,-1.16245 0.0072,-2.3256 0.06673,-3.48685 0.0704,-1.12617 0.183208,-2.24952 0.323014,-3.36912 0.196935,-1.28611 0.435232,-2.56835 0.725093,-3.83658 0.334672,-1.11614 0.750795,-2.21165 1.344248,-3.2188 0.468765,-0.78147 0.982358,-1.54036 1.648494,-2.16999 0.608666,-0.51756 1.63603,-1.09818 -0.717034,0.28778 -0.12632,0.0744 0.256707,-0.14203 0.389022,-0.20516 0.354801,-0.16928 0.473461,-0.19864 0.844839,-0.32714 1.092316,-0.27439 2.193596,-0.5136 3.278422,-0.81749 0,0 1.575462,-1.1962 1.575462,-1.1962 z" />
  </g>
</svg>
